<svg width="19" height="16" viewBox="0 0 19 16" fill="none" xmlns="http://www.w3.org/2000/svg">
<path fill-rule="evenodd" clip-rule="evenodd" d="M5.97572 16C13.1464 16 17.0673 9.8446 17.0673 4.50754C17.0673 4.33243 17.0639 4.15872 17.0559 3.9857C17.8172 4.02407 18.4788 3.19386 19.0005 1.89413C18.3018 2.21575 17.5506 2.43202 16.7617 2.52969C17.5668 2.03017 18.1847 1.23834 18.4761 0.295806C17.7229 0.75835 16.8889 1.09462 16.3888 1.47066C15.7561 0.491149 14.2766 0 13.1558 0C11.0025 0 9.52304 1.80902 9.52304 4.03872C9.52304 4.35545 9.86633 4.66382 9.35812 4.95962C6.11842 5.22403 3.24557 3.1834 1.32316 0.739514C0.987947 1.33601 0.795436 2.03017 0.795436 2.76969C0.795436 4.17127 1.48336 5.40821 2.83901 6.13168C1.89059 6.11145 1.2895 5.92936 0.764473 5.62658C0.7638 5.64332 0.7638 5.66007 0.7638 5.67821C0.7638 7.63443 2.10734 9.26764 4.33332 9.74483C3.56328 9.73018 3.66694 9.78041 2.86324 9.78041C2.61217 9.78041 2.36783 9.7546 2.13022 9.70716C2.62698 11.3118 4.06543 13.0447 5.77177 12.5124C4.43766 13.5959 2.75689 14.2419 0.930732 14.2419C0.616388 14.2419 0.306082 14.2231 0.000488281 14.1861C1.72568 15.3316 3.77397 16 5.97572 16Z" fill="white"/>
</svg>
