<svg width="19" height="19" viewBox="0 0 19 19" fill="none" xmlns="http://www.w3.org/2000/svg">
<path d="M9.0092 5.06453C8.21769 5.06453 7.44396 5.3002 6.78585 5.74175C6.12774 6.1833 5.6148 6.81089 5.31191 7.54516C5.00901 8.27943 4.92976 9.0874 5.08418 9.8669C5.23859 10.6464 5.61974 11.3624 6.17942 11.9244C6.73909 12.4864 7.45217 12.8691 8.22846 13.0242C9.00476 13.1792 9.80941 13.0996 10.5407 12.7955C11.2719 12.4913 11.8969 11.9763 12.3367 11.3155C12.7764 10.6546 13.0111 9.87771 13.0111 9.08295C13.01 8.01754 12.588 6.99608 11.8378 6.24272C11.0875 5.48936 10.0702 5.06564 9.0092 5.06453ZM9.0092 11.0922C8.61345 11.0922 8.22658 10.9743 7.89753 10.7535C7.56847 10.5328 7.312 10.219 7.16055 9.85184C7.00911 9.4847 6.96948 9.08072 7.04669 8.69097C7.12389 8.30122 7.31447 7.94321 7.59431 7.66222C7.87415 7.38123 8.23068 7.18987 8.61883 7.11234C9.00698 7.03482 9.4093 7.07461 9.77493 7.22668C10.1406 7.37875 10.4531 7.63628 10.6729 7.96669C10.8928 8.2971 11.0102 8.68556 11.0102 9.08295C11.0102 9.61582 10.7993 10.1269 10.4241 10.5037C10.0488 10.8805 9.53989 11.0922 9.0092 11.0922ZM13.0111 0.0415039H5.00728C3.68104 0.0430549 2.40955 0.572763 1.47176 1.51443C0.53396 2.45609 0.0064274 3.73281 0.00488281 5.06453V13.1014C0.0064274 14.4331 0.53396 15.7098 1.47176 16.6515C2.40955 17.5931 3.68104 18.1228 5.00728 18.1244H13.0111C14.3374 18.1228 15.6088 17.5931 16.5466 16.6515C17.4844 15.7098 18.012 14.4331 18.0135 13.1014V5.06453C18.012 3.73281 17.4844 2.45609 16.5466 1.51443C15.6088 0.572763 14.3374 0.0430549 13.0111 0.0415039ZM16.0126 13.1014C16.0126 13.9007 15.6963 14.6673 15.1335 15.2325C14.5706 15.7977 13.8071 16.1152 13.0111 16.1152H5.00728C4.21125 16.1152 3.44782 15.7977 2.88494 15.2325C2.32206 14.6673 2.00584 13.9007 2.00584 13.1014V5.06453C2.00584 4.26521 2.32206 3.49864 2.88494 2.93344C3.44782 2.36824 4.21125 2.05071 5.00728 2.05071H13.0111C13.8071 2.05071 14.5706 2.36824 15.1335 2.93344C15.6963 3.49864 16.0126 4.26521 16.0126 5.06453V13.1014ZM14.6786 4.72966C14.6786 4.99458 14.6003 5.25355 14.4538 5.47383C14.3072 5.69411 14.0989 5.86579 13.8551 5.96717C13.6113 6.06855 13.3431 6.09508 13.0844 6.04339C12.8256 5.99171 12.5879 5.86414 12.4013 5.67681C12.2148 5.48948 12.0877 5.25081 12.0363 4.99098C11.9848 4.73114 12.0112 4.46182 12.1122 4.21707C12.2131 3.97231 12.3841 3.76311 12.6035 3.61593C12.8229 3.46874 13.0808 3.39019 13.3446 3.39019C13.6984 3.39019 14.0377 3.53131 14.2879 3.78251C14.538 4.03371 14.6786 4.37441 14.6786 4.72966Z" fill="white"/>
</svg>
